<svg id="Capa_1" enable-background="new 0 0 512 512" height="512" viewBox="0 0 512 512" width="512" xmlns="http://www.w3.org/2000/svg"><g><g><g><g><g><g><g><g><g><circle cx="256" cy="256" fill="#ffce00" r="256"/></g></g></g></g></g></g></g></g><path d="m512 256c0-5.321-.163-10.605-.483-15.846l-158.24-158.24-194.516 348.212 81.392 81.392c5.241.319 10.525.482 15.847.482 141.385 0 256-114.615 256-256z" fill="#ffa300"/><g><path d="m334.732 437.792h-157.464c-14.455 0-26.173-11.718-26.173-26.173v-311.238c0-14.455 11.718-26.173 26.173-26.173h157.464c14.455 0 26.173 11.718 26.173 26.173v311.238c0 14.455-11.718 26.173-26.173 26.173z" fill="#414952"/></g><g><path d="m334.732 74.208h-78.612v363.583h78.612c14.455 0 26.173-11.718 26.173-26.173v-311.237c0-14.455-11.718-26.173-26.173-26.173z" fill="#23272b"/></g><g><path d="m171.294 102.227h169.411v307.547h-169.411z" fill="#fff"/></g><g><path d="m256.121 102.227h84.585v307.547h-84.585z" fill="#e9edf5"/></g><g><path d="m324.138 130.731h-136.276v56.036h12.634l16.305 25.195 16.305-25.195h91.032z" fill="#64e1dc"/></g><g><path d="m256.121 130.731h68.017v56.036h-68.017z" fill="#1cadb5"/></g><g><path d="m324.138 306.224h-136.276v56.036h12.634l16.305 25.194 16.305-25.194h91.032z" fill="#64e1dc"/></g><g><path d="m256.121 306.224h68.017v56.036h-68.017z" fill="#1cadb5"/></g><g><path d="m187.862 218.477h136.276v56.037h-12.634l-16.305 25.194-16.305-25.194h-91.032z" fill="#ff6c52"/></g><g><path d="m256.121 218.477v56.036h22.773l16.305 25.195 16.305-25.195h12.634v-56.036z" fill="#ff432e"/></g></g></svg>