<svg id="ejzeye0gbfq1" xmlns="http://www.w3.org/2000/svg" xmlns:xlink="http://www.w3.org/1999/xlink" viewBox="0 0 998.282230 772.773250" shape-rendering="geometricPrecision" text-rendering="geometricPrecision"><style><![CDATA[#ejzeye0gbfq3_to {animation: ejzeye0gbfq3_to__to 3000ms linear 1 alternate-reverse forwards}@keyframes ejzeye0gbfq3_to__to { 0% {transform: translate(0px,0px)} 33.333333% {transform: translate(110.839580px,-25.169267px)} 66.666667% {transform: translate(38.009100px,-4.481100px)} 100% {transform: translate(67.501280px,-4.901567px)} }#ejzeye0gbfq4_to {animation: ejzeye0gbfq4_to__to 3000ms linear 1 alternate-reverse forwards}@keyframes ejzeye0gbfq4_to__to { 0% {transform: translate(0px,0px)} 33.333333% {transform: translate(66.677230px,15.295633px)} 66.666667% {transform: translate(81.280960px,22.191689px)} 100% {transform: translate(73.979095px,16.202602px)} }#ejzeye0gbfq5_to {animation: ejzeye0gbfq5_to__to 3000ms linear 1 alternate-reverse forwards}@keyframes ejzeye0gbfq5_to__to { 0% {transform: translate(0px,0px)} 33.333333% {transform: translate(75.787155px,38.046589px)} 66.666667% {transform: translate(75.212770px,38.464600px)} 100% {transform: translate(50.913120px,28.043015px)} }]]></style><defs><linearGradient id="ejzeye0gbfq3-fill" x1="0" y1="0.500000" x2="1" y2="0.500000" spreadMethod="pad" gradientUnits="objectBoundingBox"><stop id="ejzeye0gbfq3-fill-0" offset="0%" stop-color="rgb(108,99,255)"/><stop id="ejzeye0gbfq3-fill-1" offset="53%" stop-color="rgb(148,117,255)"/><stop id="ejzeye0gbfq3-fill-2" offset="100%" stop-color="rgb(183,133,255)"/></linearGradient><linearGradient id="ejzeye0gbfq4-fill" x1="0" y1="0.500000" x2="1" y2="0.500000" spreadMethod="pad" gradientUnits="objectBoundingBox"><stop id="ejzeye0gbfq4-fill-0" offset="0%" stop-color="rgb(108,99,255)"/><stop id="ejzeye0gbfq4-fill-1" offset="53%" stop-color="rgb(148,117,255)"/><stop id="ejzeye0gbfq4-fill-2" offset="100%" stop-color="rgb(183,133,255)"/></linearGradient><linearGradient id="ejzeye0gbfq5-fill" x1="0" y1="0.500000" x2="1" y2="0.500000" spreadMethod="pad" gradientUnits="objectBoundingBox"><stop id="ejzeye0gbfq5-fill-0" offset="0%" stop-color="rgb(108,99,255)"/><stop id="ejzeye0gbfq5-fill-1" offset="53%" stop-color="rgb(148,117,255)"/><stop id="ejzeye0gbfq5-fill-2" offset="100%" stop-color="rgb(183,133,255)"/></linearGradient></defs><path id="ejzeye0gbfq2" d="M544.296390,239.331760C503.206556,239.363598,462.401492,232.513983,423.574220,219.067110C371.522000,201.070000,328.879390,176.246310,296.832000,145.285370C236.210940,86.719450,186.510740,77.893280,155.498540,80.799530C121.928220,83.946990,102.387700,101.137420,102.194340,101.310760L100.858890,99.822000C102.516141,99.644760,120.999510,82.064190,155.182130,78.820540C175.227540,76.919660,196.189940,80.231670,217.488770,88.667710C244.049320,99.187710,271.211910,117.752710,298.221680,143.846900C330.058110,174.604230,372.452680,199.276100,424.227540,217.176490C519.274900,250.037820,626.396970,242.081770,718.126460,195.347390C748.497560,179.872780,778.515140,169.310280,807.344240,163.953390C843.697750,157.196550,878.174320,158.764910,909.823730,168.611590C979.372560,190.248800,1026.877440,189.101340,1054.481930,184.330830C1084.266110,179.182830,1097.779790,168.880150,1097.912600,168.776630L1099.141110,170.355250C1098.581540,170.790250,1085.095210,181.069110,1054.821780,186.301530C1026.999510,191.111100,979.154780,192.276140,909.229980,170.520770C838.429200,148.496360,766.721190,172.832770,719.034670,197.128700C673.695883,220.350833,624.188652,234.317090,573.398000,238.213590Q558.794920,239.331270,544.296390,239.331760Z" transform="matrix(1 0 0 1 -100.85899999999999 -63.61340000000000)" fill="rgb(63,61,86)" stroke="none" stroke-width="1"/><g id="ejzeye0gbfq3_to" transform="translate(67.501280,-4.901567)"><circle id="ejzeye0gbfq3" r="20.267700" transform="translate(439.400000,180.268000)" fill="url(#ejzeye0gbfq3-fill)" stroke="none" stroke-width="1"/></g><g id="ejzeye0gbfq4_to" transform="translate(73.979095,16.202602)"><circle id="ejzeye0gbfq4" r="20.267700" transform="translate(753.400000,99.267700)" fill="url(#ejzeye0gbfq4-fill)" stroke="none" stroke-width="1"/></g><g id="ejzeye0gbfq5_to" transform="translate(50.913120,28.043015)"><circle id="ejzeye0gbfq5" r="20.267700" transform="translate(100.400000,20.267700)" fill="url(#ejzeye0gbfq5-fill)" stroke="none" stroke-width="1"/></g><path id="ejzeye0gbfq6" d="M685.602670,548.095820L685.602670,743.922820L716.393080,743.922820L716.393080,565.338450L839.554730,565.338450L839.554730,743.922850L870.345150,743.922850L870.345150,352.268790L839.554730,352.268790C829.351650,352.268790,813.690780,405.407660,813.690780,458.803620C813.690780,499.051110,818.391130,533.543620,825.074780,548.095820ZM839.554730,548.095820L839.255250,548.095820C839.355830,547.876820,839.455050,547.645690,839.554730,547.417690Z" transform="matrix(1 0 0 1 -100.85899999999999 -63.61340000000000)" fill="rgb(63,61,86)" stroke="none" stroke-width="1"/><path id="ejzeye0gbfq7" d="M799.704100,255.341710L799.704000,255.341710C774.430110,255.341710,753.941560,278.079490,753.941560,306.127950L753.941560,341.763830L764.901560,341.763830L771.246750,328.560450L769.660430,341.763830L840.106860,341.763830L845.875220,329.760760L844.433140,341.763830L852.364650,341.763830L852.364650,313.783280C852.364660,281.506930,828.787720,255.341710,799.704100,255.341710Z" transform="matrix(1 0 0 1 -100.85899999999999 -63.61340000000000)" fill="rgb(47,46,65)" stroke="none" stroke-width="1"/><path id="ejzeye0gbfq8" d="M747.268390,488.167590L719.170630,500.109140L621.530940,579.485290C617.940618,583.897347,615.740401,589.275651,615.208940,594.939060C614.506500,604.070830,585.003860,651.837010,595.540520,658.159010C606.077180,664.481010,644.009140,683.447010,646.116520,670.803010C648.223900,658.159010,659.462960,604.070840,659.462960,604.070840L753.590430,519.777580Z" transform="matrix(1 0 0 1 -100.85899999999999 -63.61340000000000)" fill="rgb(47,46,65)" stroke="none" stroke-width="1"/><path id="ejzeye0gbfq9" d="M636.984700,660.266340L625.043160,695.388530C625.043160,695.388530,637.687160,708.734960,631.365160,719.974070L631.365160,758.608480L621.530950,758.608480L618.721170,738.237610C618.721170,738.237610,607.519950,758.351120,601.862520,758.608480C590.002520,759.147990,566.516440,763.366630,565.813990,757.044630C565.111540,750.722630,583.598990,744.559630,583.598990,744.559630L603.267420,690.471450L611.696740,657.456590Z" transform="matrix(1 0 0 1 -100.85899999999999 -63.61340000000000)" fill="rgb(47,46,65)" stroke="none" stroke-width="1"/><path id="ejzeye0gbfq10" d="M820.322550,479.035820C820.322550,479.035820,826.644550,540.850880,808.381000,552.089980C790.117450,563.329080,709.336420,599.153720,709.336420,599.153720C709.336420,599.153720,743.756170,631.466140,736.731730,639.193020C729.707290,646.919900,698.097320,667.993220,693.882650,663.778560C689.667980,659.563900,642.604250,608.987940,648.223800,592.831730C653.843350,576.675520,731.814620,523.992230,731.814620,523.992230L740.946390,490.977370L743.756170,464.284500L773.258810,445.318500Z" transform="matrix(1 0 0 1 -100.85899999999999 -63.61340000000000)" fill="rgb(47,46,65)" stroke="none" stroke-width="1"/><circle id="ejzeye0gbfq11" r="29.283700" transform="matrix(1 0 0 1 687.28099999999995 242.21799999999999)" fill="rgb(255,185,185)" stroke="none" stroke-width="1"/><path id="ejzeye0gbfq12" d="M810.839560,317.825000C810.839560,317.825000,809.434670,344.517860,831.210430,352.947190C852.986190,361.376520,777.122250,416.167140,777.122250,416.167140L777.122250,355.054480C777.122250,355.054480,786.956470,344.517820,777.122250,328.361620Z" transform="matrix(1 0 0 1 -100.85899999999999 -63.61340000000000)" fill="rgb(255,185,185)" stroke="none" stroke-width="1"/><path id="ejzeye0gbfq13" d="M857.552070,443.211190L851.932520,470.606500L835.073870,564.734000C835.073870,564.734000,849.122750,604.773300,830.156760,604.070860C811.190770,603.368420,820.322550,560.519340,820.322550,560.519340L830.156760,482.548070L830.156760,452.343000Z" transform="matrix(1 0 0 1 -100.85899999999999 -63.61340000000000)" fill="rgb(255,185,185)" stroke="none" stroke-width="1"/><path id="ejzeye0gbfq14" d="M736.731730,429.864750L730.409730,454.450290L701.609530,523.992230C701.609530,523.992230,681.941100,557.007090,698.097310,556.304650C714.253520,555.602210,714.253520,523.992230,714.253520,523.992230L747.268380,467.796720L747.268380,436.186720Z" transform="matrix(1 0 0 1 -100.85899999999999 -63.61340000000000)" fill="rgb(255,185,185)" stroke="none" stroke-width="1"/><path id="ejzeye0gbfq15" d="M731.814620,634.978360L754.995270,656.754120C754.995270,656.754120,771.151480,653.241900,777.473470,672.207880C783.795460,691.173860,788.010130,703.115410,788.010130,703.115410L779.580810,708.032520L769.044150,693.281200C769.044150,693.281200,762.722150,719.974070,756.400150,722.081400C750.078150,724.188730,718.468150,738.237610,721.277960,722.081400L736.731720,699.603190C736.731720,699.603190,738.839050,674.315190,732.517060,672.207880C726.195070,670.100570,709.336410,649.027240,709.336410,649.027240Z" transform="matrix(1 0 0 1 -100.85899999999999 -63.61340000000000)" fill="rgb(47,46,65)" stroke="none" stroke-width="1"/><path id="ejzeye0gbfq16" d="M821.436110,500.811580C821.436110,500.811580,755.406380,476.928490,751.191720,479.035820C748.054457,480.421808,744.712928,481.289098,741.297620,481.603820L741.357510,472.011410C741.357510,472.011410,763.133270,464.284530,775.074810,469.201640C787.016350,474.118750,823.543440,495.894510,823.543440,495.894510Z" transform="matrix(1 0 0 1 -100.85899999999999 -63.61340000000000)" fill="rgb(63,61,86)" stroke="none" stroke-width="1"/><path id="ejzeye0gbfq17" d="M781.336920,402.118220C781.336920,402.118220,800.302920,380.342460,805.922450,366.996030C809.477856,358.905014,816.003917,352.487812,824.153590,349.069000C832.303263,345.650188,866.332590,358.566740,865.630180,375.425390C864.927770,392.284040,838.937310,418.274470,838.937310,418.274470C838.937310,418.274470,842.449530,511.699470,823.483550,510.294610C819.392731,505.412444,816.505464,499.637914,815.054220,493.435960C812.946890,483.601750,747.619610,473.065090,747.619610,473.065090C747.619610,473.065090,742.000060,482.899300,741.297610,478.684640C740.595160,474.469980,746.917160,371.210730,746.917160,371.210730L780.414580,349.069000Z" transform="matrix(1 0 0 1 -100.85899999999999 -63.61340000000000)" fill="rgb(208,205,225)" stroke="none" stroke-width="1"/><path id="ejzeye0gbfq18" d="M860.219240,368.639470L860.689610,368.903470C863.746321,370.618819,865.638558,373.851034,865.638070,377.356160L865.630860,429.486590C865.641498,432.354566,866.912047,435.072945,869.105500,436.920690C871.811380,439.222270,874.320580,442.538830,869.142400,444.264890C860.713070,447.074670,827.698210,461.123540,826.995770,456.206440C826.293330,451.289340,824.888430,445.669780,826.995770,445.669780C828.645540,445.669780,838.475210,395.298780,846.373490,373.762070C847.349802,371.093556,849.447891,368.987852,852.112851,368.001880C854.777811,367.015908,857.741195,367.248986,860.219240,368.639470Z" transform="matrix(1 0 0 1 -100.85899999999999 -63.61340000000000)" fill="rgb(208,205,225)" stroke="none" stroke-width="1"/><path id="ejzeye0gbfq19" d="M756.400160,368.752140L746.565940,371.561910L735.326840,420.030540C735.326840,420.030540,721.980410,422.840310,726.195070,427.757420C730.409730,432.674530,747.970830,445.318520,747.970830,445.318520Z" transform="matrix(1 0 0 1 -100.85899999999999 -63.61340000000000)" fill="rgb(208,205,225)" stroke="none" stroke-width="1"/><path id="ejzeye0gbfq20" d="M812.713530,269.331640C808.250037,263.337818,801.249214,259.765242,793.776650,259.668000L792.878200,259.668000C775.555420,259.668000,761.512610,275.343120,761.512610,294.679380L761.512610,294.679460L767.317010,294.679460L768.254410,287.544320L769.628820,294.679460L804.054420,294.679460L806.938630,288.643000L806.217560,294.679460L812.990060,294.679460Q817.730500,318.221650,799.367630,341.763830L810.904420,341.763830L816.672780,329.690910L815.230710,341.763830L837.222650,341.763830L841.548940,313.996050C841.548940,293.200550,829.466150,275.566390,812.713530,269.331640Z" transform="matrix(1 0 0 1 -100.85899999999999 -63.61340000000000)" fill="rgb(47,46,65)" stroke="none" stroke-width="1"/><path id="ejzeye0gbfq21" d="M224.393860,593.341710C231.783780,577.251880,236.980800,539.114620,236.980800,494.614320C236.980800,435.576200,219.665110,376.822320,208.383900,376.822320L174.340000,376.822320L174.340000,809.861090L208.383900,809.861090L208.383900,612.406310L344.559610,612.406310L344.559610,809.861090L378.603540,809.861090L378.603540,593.341710ZM208.383860,592.591930C208.494070,592.844020,208.603790,593.099600,208.714990,593.341710L208.383860,593.341710Z" transform="matrix(1 0 0 1 -100.85899999999999 -63.61340000000000)" fill="rgb(63,61,86)" stroke="none" stroke-width="1"/><path id="ejzeye0gbfq22" d="M366.292120,514.341710C366.292120,514.341710,407.292120,531.341710,394.292120,541.341710C381.292120,551.341710,354.292120,529.341710,355.292120,526.341710C356.292120,523.341710,351.292120,516.341710,351.292120,516.341710Z" transform="matrix(1 0 0 1 -100.85899999999999 -63.61340000000000)" fill="rgb(159,97,106)" stroke="none" stroke-width="1"/><path id="ejzeye0gbfq23" d="M330.292120,380.341710L343.292120,392.341710L346.292120,427.341710L356.292120,464.341710C356.292120,464.341710,373.292120,499.341710,370.292120,506.341710C367.292120,513.341710,373.292120,515.341710,373.292120,515.341710L350.292120,524.341710C350.292120,524.341710,325.292120,496.341710,325.292120,490.341710C325.292120,484.341710,330.292120,380.341710,330.292120,380.341710Z" transform="matrix(1 0 0 1 -100.85899999999999 -63.61340000000000)" fill="rgb(87,90,136)" stroke="none" stroke-width="1"/><path id="ejzeye0gbfq24" d="M330.292120,380.341710L343.292120,392.341710L346.292120,427.341710L356.292120,464.341710C356.292120,464.341710,373.292120,499.341710,370.292120,506.341710C367.292120,513.341710,373.292120,515.341710,373.292120,515.341710L350.292120,524.341710C350.292120,524.341710,325.292120,496.341710,325.292120,490.341710C325.292120,484.341710,330.292120,380.341710,330.292120,380.341710Z" transform="matrix(1 0 0 1 -100.85899999999999 -63.61340000000000)" opacity="0.1" fill="rgb(0,0,0)" stroke="none" stroke-width="1"/><path id="ejzeye0gbfq25" d="M453.292120,740.341710C453.292120,740.341710,448.292120,763.341710,447.292120,765.341710C446.292120,767.341710,466.292120,774.341710,466.292120,774.341710L490.292120,757.341710C490.292120,757.341710,480.292120,735.341710,480.292120,731.341710Z" transform="matrix(1 0 0 1 -100.85899999999999 -63.61340000000000)" fill="rgb(87,90,136)" stroke="none" stroke-width="1"/><path id="ejzeye0gbfq26" d="M322.292120,516.341710L329.292120,524.341710C329.292120,524.341710,474.292120,542.341710,477.292120,570.341710C480.292120,598.341710,501.292120,730.341710,489.292120,734.341710C477.292120,738.341710,446.292120,753.341710,446.292120,745.341710C446.292120,737.341710,426.292120,627.341710,430.292120,607.341710C430.292120,607.341710,257.292120,585.341710,253.292120,560.341710C249.292120,535.341710,257.292120,524.341710,257.292120,524.341710Z" transform="matrix(1 0 0 1 -100.85899999999999 -63.61340000000000)" fill="rgb(47,46,65)" stroke="none" stroke-width="1"/><path id="ejzeye0gbfq27" d="M322.292120,516.341710L329.292120,524.341710C329.292120,524.341710,474.292120,542.341710,477.292120,570.341710C480.292120,598.341710,501.292120,730.341710,489.292120,734.341710C477.292120,738.341710,446.292120,753.341710,446.292120,745.341710C446.292120,737.341710,426.292120,627.341710,430.292120,607.341710C430.292120,607.341710,257.292120,585.341710,253.292120,560.341710C249.292120,535.341710,257.292120,524.341710,257.292120,524.341710Z" transform="matrix(1 0 0 1 -100.85899999999999 -63.61340000000000)" opacity="0.1" fill="rgb(0,0,0)" stroke="none" stroke-width="1"/><path id="ejzeye0gbfq28" d="M451.292120,763.341710C451.292120,763.341710,447.292120,754.341710,445.292120,757.341710C443.292120,760.341710,436.292120,795.341710,443.292120,795.341710C450.292120,795.341710,514.292120,811.341710,523.292120,809.341710C532.292120,807.341710,549.292120,810.341710,547.292120,800.341710C545.292120,790.341710,535.292120,789.341710,535.292120,789.341710C535.292120,789.341710,498.292120,767.341710,496.292120,756.341710C494.292120,745.341710,483.292120,751.341710,483.292120,751.341710L483.292120,758.341710C483.292120,758.341710,462.292120,774.341710,451.292120,763.341710Z" transform="matrix(1 0 0 1 -100.85899999999999 -63.61340000000000)" fill="rgb(47,46,65)" stroke="none" stroke-width="1"/><path id="ejzeye0gbfq29" d="M261.292120,304.341710C261.292120,304.341710,268.292120,338.341710,253.292120,341.341710C238.292120,344.341710,272.292120,364.341710,272.292120,364.341710L294.292120,376.341710L310.292120,360.341710C310.292120,360.341710,295.792120,330.841710,306.792120,308.841710C317.792120,286.841710,261.292120,304.341710,261.292120,304.341710Z" transform="matrix(1 0 0 1 -100.85899999999999 -63.61340000000000)" fill="rgb(159,97,106)" stroke="none" stroke-width="1"/><path id="ejzeye0gbfq30" d="M310.292120,360.341710L294.292120,376.341710L272.292120,364.341710C272.292120,364.341710,238.292120,344.341710,253.292120,341.341710C262.942120,339.411710,263.482060,324.651710,262.652120,314.371710C262.381212,311.006166,261.927207,307.657874,261.292120,304.341710C260.657033,301.025546,317.792120,286.841710,306.792120,308.841710C305.120770,312.238970,303.961558,315.864941,303.352180,319.601710C299.982060,339.371680,310.292120,360.341710,310.292120,360.341710Z" transform="matrix(1 0 0 1 -100.85899999999999 -63.61340000000000)" fill="rgb(159,97,106)" stroke="none" stroke-width="1"/><polygon id="ejzeye0gbfq31" points="265.433000,705.728000 265.433000,728.728000 303.433000,728.728000 306.433000,719.728000 302.433000,695.728000 265.433000,705.728000" fill="rgb(87,90,136)" stroke="none" stroke-width="1"/><path id="ejzeye0gbfq32" d="M209.292120,536.341710C209.292120,536.341710,209.292120,595.341710,233.292120,597.341710C257.292120,599.341710,343.292120,610.341710,343.292120,610.341710C343.292120,610.341710,348.292120,708.341710,357.292120,740.341710C366.292120,772.341710,358.292120,774.341710,366.292120,776.341710C374.292120,778.341710,408.292120,771.341710,407.292120,764.341710C406.292120,757.341710,402.292120,580.341710,402.292120,580.341710C402.292120,580.341710,411.292120,542.341710,291.292120,524.341710Z" transform="matrix(1 0 0 1 -100.85899999999999 -63.61340000000000)" fill="rgb(47,46,65)" stroke="none" stroke-width="1"/><path id="ejzeye0gbfq33" d="M369.292120,785.341710C369.292120,785.341710,363.292120,772.341710,362.292120,776.341710C361.292120,780.341710,349.292120,815.341710,361.292120,818.341710C373.292120,821.341710,411.292120,837.341710,436.292120,836.341710C461.292120,835.341710,464.292120,834.341710,464.292120,834.341710C464.292120,834.341710,471.292120,824.341710,462.292120,818.341710C453.292120,812.341710,416.292120,777.341710,414.292120,773.341710C412.292120,769.341710,397.292120,766.341710,397.292120,773.341710C397.292120,780.341710,376.292120,794.341710,369.292120,785.341710Z" transform="matrix(1 0 0 1 -100.85899999999999 -63.61340000000000)" fill="rgb(47,46,65)" stroke="none" stroke-width="1"/><path id="ejzeye0gbfq34" d="M306.792120,308.841710C305.120770,312.238970,303.961558,315.864941,303.352180,319.601710C298.372180,322.611710,295.042120,321.841710,288.792120,321.841710C279.522120,321.841710,275.782120,309.991710,269.792120,303.841710C269.322120,298.131710,261.292120,304.341710,261.292120,304.341710C261.292120,304.341710,317.792120,286.841710,306.792120,308.841710Z" transform="matrix(1 0 0 1 -100.85899999999999 -63.61340000000000)" opacity="0.1" fill="rgb(0,0,0)" stroke="none" stroke-width="1"/><circle id="ejzeye0gbfq35" r="33" transform="matrix(1 0 0 1 185.43299999999999 224.72800000000001)" fill="rgb(159,97,106)" stroke="none" stroke-width="1"/><path id="ejzeye0gbfq36" d="M343.292120,392.341710C343.292120,392.341710,338.292120,428.341710,335.292120,441.341710C332.292120,454.341710,328.292120,514.341710,326.292120,522.341710C324.292120,530.341710,312.292120,532.341710,288.292120,529.341710C286.785475,529.152022,285.270212,529.038544,283.752120,529.001710C268.972120,528.531710,252.062180,534.061710,236.412120,538.401710C227.412120,540.901710,218.822120,543.001710,211.292120,543.341710C199.892120,543.861710,196.552120,531.221710,196.942120,517.541710C197.312120,504.811710,200.922120,491.161710,204.292120,486.341710C210.362190,477.661710,204.392120,399.731710,206.632210,374.031710L206.632210,374.021710C206.972060,370.101710,207.502080,367.401710,208.292120,366.341710C214.292120,358.341710,253.292120,338.341710,257.662120,339.151710C262.022120,339.961710,299.292120,363.341710,299.292120,363.341710C308.292120,363.341710,308.002120,353.581710,308.002120,353.581710C308.002120,353.581710,314.292120,365.341710,326.292120,368.341710C338.292120,371.341710,343.292120,392.341710,343.292120,392.341710Z" transform="matrix(1 0 0 1 -100.85899999999999 -63.61340000000000)" fill="rgb(87,90,136)" stroke="none" stroke-width="1"/><path id="ejzeye0gbfq37" d="M276.444820,521.984460C276.444820,521.984460,340.860820,524.035520,329.576470,531.688610C318.292120,539.341700,268.292120,546.341710,267.292120,536.341710C266.292120,526.341710,276.444820,521.984460,276.444820,521.984460Z" transform="matrix(1 0 0 1 -100.85899999999999 -63.61340000000000)" fill="rgb(159,97,106)" stroke="none" stroke-width="1"/><path id="ejzeye0gbfq38" d="M283.752080,529.001680C283.962080,532.841680,273.632210,541.491680,270.292080,547.341680C268.442080,550.581680,254.122160,546.311680,236.412080,538.401680C222.821779,532.301782,209.637897,525.334065,196.942080,517.541680C197.312080,504.811680,200.922080,491.161680,204.292080,486.341680C210.362150,477.661680,204.392080,399.731680,206.632170,374.031680L206.632170,374.021680C207.166200,373.750554,207.721319,373.523143,208.292080,373.341680L220.292080,373.341680C261.292080,392.341680,214.292080,474.341680,214.292080,474.341680C214.292080,474.341680,276.292080,525.341680,282.292080,527.341680C283.101637,527.495080,283.703300,528.179163,283.752080,529.001680Z" transform="matrix(1 0 0 1 -100.85899999999999 -63.61340000000000)" opacity="0.1" fill="rgb(0,0,0)" stroke="none" stroke-width="1"/><path id="ejzeye0gbfq39" d="M220.292120,367.341710L208.292120,367.341710C208.292120,367.341710,197.292120,370.341710,188.292120,390.341710C179.292120,410.341710,146.292120,472.341710,175.292120,496.341710C204.292120,520.341710,266.292120,548.341710,270.292120,541.341710C274.292120,534.341710,288.292120,523.341710,282.292120,521.341710C276.292120,519.341710,214.292120,468.341710,214.292120,468.341710C214.292120,468.341710,261.292120,386.341710,220.292120,367.341710Z" transform="matrix(1 0 0 1 -100.85899999999999 -63.61340000000000)" fill="rgb(87,90,136)" stroke="none" stroke-width="1"/><path id="ejzeye0gbfq40" d="M281.215280,272.986000C281.215280,272.986000,282.663480,252.938490,300.529150,261.112730C318.394820,269.286970,317.229040,246.756070,311.830150,242.774600C306.431260,238.793130,306.602220,237.807840,286.856230,240.471710C267.110240,243.135580,228.774510,247.648960,241.170150,287.352210C253.565790,327.055460,264.792150,316.841760,264.792150,316.841760C264.792150,316.841760,254.939150,281.114040,264.922590,287.920760L274.906000,294.727490L280.174290,293.611620Z" transform="matrix(1 0 0 1 -100.85899999999999 -63.61340000000000)" fill="rgb(47,46,65)" stroke="none" stroke-width="1"/><path id="ejzeye0gbfq41" d="M1018.394240,561.659540C1018.394240,543.609690,884.264740,528.977370,718.807680,528.977370C553.350620,528.977370,419.221110,543.609690,419.221110,561.659540C419.221110,568.655170,439.380170,575.136650,473.691400,580.452690L473.691400,804.052310L490.032480,804.052310L490.032480,582.758130C544.986830,589.842440,627.074330,594.341710,718.807680,594.341710C811.299110,594.341710,893.989780,589.768220,948.944630,582.582430L948.944630,804.052310L965.285710,804.052310L965.285710,580.238310C998.763790,574.962690,1018.394240,568.561660,1018.394240,561.659540Z" transform="matrix(1 0 0 1 -100.85899999999999 -63.61340000000000)" fill="rgb(63,61,86)" stroke="none" stroke-width="1"/><ellipse id="ejzeye0gbfq42" rx="61" ry="15" transform="matrix(1 0 0 1 655.48099999999999 483.72800000000001)" fill="rgb(242,242,242)" stroke="none" stroke-width="1"/><ellipse id="ejzeye0gbfq43" rx="50" ry="12.295100" transform="matrix(1 0 0 1 655.48099999999999 483.72800000000001)" fill="rgb(208,205,225)" stroke="none" stroke-width="1"/><ellipse id="ejzeye0gbfq44" rx="61" ry="15" transform="matrix(1 0 0 1 428.48099999999999 495.72800000000001)" fill="rgb(242,242,242)" stroke="none" stroke-width="1"/><ellipse id="ejzeye0gbfq45" rx="50" ry="12.295100" transform="matrix(1 0 0 1 428.48099999999999 495.72800000000001)" fill="rgb(208,205,225)" stroke="none" stroke-width="1"/><ellipse id="ejzeye0gbfq46" rx="29.080400" ry="4.591640" transform="matrix(1 0 0 1 654.06100000000004 478.07799999999997)" fill="rgb(159,97,106)" stroke="none" stroke-width="1"/><ellipse id="ejzeye0gbfq47" rx="9.183280" ry="4.974280" transform="matrix(1 0 0 1 638.56500000000005 471.38099999999997)" fill="rgb(108,99,255)" stroke="none" stroke-width="1"/><ellipse id="ejzeye0gbfq48" rx="9.183280" ry="4.974280" transform="matrix(1 0 0 1 635.12099999999998 471.38099999999997)" fill="rgb(108,99,255)" stroke="none" stroke-width="1"/><ellipse id="ejzeye0gbfq49" rx="9.183280" ry="4.974280" transform="matrix(1 0 0 1 675.29800000000000 472.52900000000000)" fill="rgb(108,99,255)" stroke="none" stroke-width="1"/><ellipse id="ejzeye0gbfq50" rx="9.183280" ry="4.974280" transform="matrix(1 0 0 1 654.25300000000004 471.38099999999997)" fill="rgb(108,99,255)" stroke="none" stroke-width="1"/><ellipse id="ejzeye0gbfq51" rx="9.183280" ry="4.974280" transform="matrix(1 0 0 1 669.94100000000003 471.38099999999997)" fill="rgb(108,99,255)" stroke="none" stroke-width="1"/><path id="ejzeye0gbfq52" d="M782.661520,531.933710Q757.766080,540.381840,726.796520,531.933710L726.796520,531.158710C726.789330,518.997542,736.320296,508.967370,748.466000,508.354240C753.387817,508.106557,758.319133,508.112872,763.240300,508.373160C774.164160,509.009475,782.688766,518.067657,782.661520,529.010000Z" transform="matrix(1 0 0 1 -100.85899999999999 -63.61340000000000)" fill="rgb(63,61,86)" stroke="none" stroke-width="1"/><path id="ejzeye0gbfq53" d="M774.513330,553.019800C762.247823,554.258590,749.888717,554.258590,737.623210,553.019800C731.595612,552.428357,726.997390,547.364848,726.987890,541.308310L785.148660,541.308310C785.139155,547.364850,780.540930,552.428357,774.513330,553.019800Z" transform="matrix(1 0 0 1 -100.85899999999999 -63.61340000000000)" fill="rgb(63,61,86)" stroke="none" stroke-width="1"/><path id="ejzeye0gbfq54" d="M747.076310,515.480330C744.382550,516.602728,741.352070,516.602728,738.658310,515.480330C741.352070,514.357932,744.382550,514.357932,747.076310,515.480330Z" transform="matrix(1 0 0 1 -100.85899999999999 -63.61340000000000)" fill="rgb(208,205,225)" stroke="none" stroke-width="1"/><path id="ejzeye0gbfq55" d="M755.494320,518.924060C752.800560,520.046458,749.770080,520.046458,747.076320,518.924060C749.770080,517.801662,752.800560,517.801662,755.494320,518.924060Z" transform="matrix(1 0 0 1 -100.85899999999999 -63.61340000000000)" fill="rgb(208,205,225)" stroke="none" stroke-width="1"/><path id="ejzeye0gbfq56" d="M756.259590,512.801870C753.565829,513.924267,750.535351,513.924267,747.841590,512.801870C750.535350,511.679472,753.565830,511.679472,756.259590,512.801870Z" transform="matrix(1 0 0 1 -100.85899999999999 -63.61340000000000)" fill="rgb(208,205,225)" stroke="none" stroke-width="1"/><path id="ejzeye0gbfq57" d="M771.947690,512.801870C769.253930,513.924270,766.223450,513.924270,763.529690,512.801870C766.223450,511.679470,769.253930,511.679470,771.947690,512.801870Z" transform="matrix(1 0 0 1 -100.85899999999999 -63.61340000000000)" fill="rgb(208,205,225)" stroke="none" stroke-width="1"/><path id="ejzeye0gbfq58" d="M767.738690,516.245600C765.044930,517.367998,762.014450,517.367998,759.320690,516.245600C762.014450,515.123202,765.044930,515.123202,767.738690,516.245600Z" transform="matrix(1 0 0 1 -100.85899999999999 -63.61340000000000)" fill="rgb(208,205,225)" stroke="none" stroke-width="1"/><ellipse id="ejzeye0gbfq59" rx="29.080400" ry="4.591640" transform="matrix(1 0 0 1 428.06099999999998 490.07799999999997)" fill="rgb(159,97,106)" stroke="none" stroke-width="1"/><ellipse id="ejzeye0gbfq60" rx="9.183280" ry="4.974280" transform="matrix(1 0 0 1 412.56500000000000 483.38099999999997)" fill="rgb(108,99,255)" stroke="none" stroke-width="1"/><ellipse id="ejzeye0gbfq61" rx="9.183280" ry="4.974280" transform="matrix(1 0 0 1 409.12099999999998 483.38099999999997)" fill="rgb(108,99,255)" stroke="none" stroke-width="1"/><ellipse id="ejzeye0gbfq62" rx="9.183280" ry="4.974280" transform="matrix(1 0 0 1 449.29800000000000 484.52900000000000)" fill="rgb(108,99,255)" stroke="none" stroke-width="1"/><ellipse id="ejzeye0gbfq63" rx="9.183280" ry="4.974280" transform="matrix(1 0 0 1 428.25299999999999 483.38099999999997)" fill="rgb(108,99,255)" stroke="none" stroke-width="1"/><ellipse id="ejzeye0gbfq64" rx="9.183280" ry="4.974280" transform="matrix(1 0 0 1 443.94099999999997 483.38099999999997)" fill="rgb(108,99,255)" stroke="none" stroke-width="1"/><path id="ejzeye0gbfq65" d="M556.661520,543.933710Q531.766080,552.381840,500.796520,543.933710L500.796520,543.158710C500.789330,530.997542,510.320296,520.967370,522.466000,520.354240C527.387817,520.106557,532.319133,520.112872,537.240300,520.373160C548.164160,521.009475,556.688766,530.067657,556.661520,541.010000Z" transform="matrix(1 0 0 1 -100.85899999999999 -63.61340000000000)" fill="rgb(63,61,86)" stroke="none" stroke-width="1"/><path id="ejzeye0gbfq66" d="M548.513330,565.019800C536.247823,566.258590,523.888717,566.258590,511.623210,565.019800C505.595612,564.428357,500.997390,559.364848,500.987890,553.308310L559.148660,553.308310C559.139155,559.364850,554.540930,564.428357,548.513330,565.019800Z" transform="matrix(1 0 0 1 -100.85899999999999 -63.61340000000000)" fill="rgb(63,61,86)" stroke="none" stroke-width="1"/><path id="ejzeye0gbfq67" d="M521.076310,527.480330C518.382550,528.602728,515.352070,528.602728,512.658310,527.480330C515.352070,526.357932,518.382550,526.357932,521.076310,527.480330Z" transform="matrix(1 0 0 1 -100.85899999999999 -63.61340000000000)" fill="rgb(208,205,225)" stroke="none" stroke-width="1"/><path id="ejzeye0gbfq68" d="M529.494320,530.924060C526.800560,532.046458,523.770080,532.046458,521.076320,530.924060C523.770081,529.801663,526.800559,529.801663,529.494320,530.924060Z" transform="matrix(1 0 0 1 -100.85899999999999 -63.61340000000000)" fill="rgb(208,205,225)" stroke="none" stroke-width="1"/><path id="ejzeye0gbfq69" d="M530.259590,524.801870C527.565829,525.924267,524.535351,525.924267,521.841590,524.801870C524.535351,523.679473,527.565829,523.679473,530.259590,524.801870Z" transform="matrix(1 0 0 1 -100.85899999999999 -63.61340000000000)" fill="rgb(208,205,225)" stroke="none" stroke-width="1"/><path id="ejzeye0gbfq70" d="M545.947690,524.801870C543.253930,525.924270,540.223450,525.924270,537.529690,524.801870C540.223450,523.679470,543.253930,523.679470,545.947690,524.801870Z" transform="matrix(1 0 0 1 -100.85899999999999 -63.61340000000000)" fill="rgb(208,205,225)" stroke="none" stroke-width="1"/><path id="ejzeye0gbfq71" d="M541.738690,528.245600C539.044930,529.367998,536.014450,529.367998,533.320690,528.245600C536.014451,527.123203,539.044929,527.123203,541.738690,528.245600Z" transform="matrix(1 0 0 1 -100.85899999999999 -63.61340000000000)" fill="rgb(208,205,225)" stroke="none" stroke-width="1"/><path id="ejzeye0gbfq72" d="M808.817000,543.277350L808.957510,546.374820L809.136740,550.392300C809.136740,550.392300,790.685070,551.435090,786.968000,555.362900C786.881815,555.447316,786.802516,555.538487,786.730860,555.635540L779.340000,554.017700L779.321680,550.376760C779.321680,550.376760,779.423610,550.320010,779.621830,550.213070C779.667150,550.189650,779.723780,550.159580,779.780440,550.129520C788.824418,545.700921,798.747277,543.359283,808.817000,543.277350Z" transform="matrix(1 0 0 1 -100.85899999999999 -63.61340000000000)" fill="rgb(108,99,255)" stroke="none" stroke-width="1"/><path id="ejzeye0gbfq73" d="M808.817000,543.277350L808.957510,546.374820C800.775280,546.627820,785.290320,551.505250,785.290320,551.505250L779.621790,550.213070C788.704965,545.726299,798.686396,543.355074,808.817000,543.277350Z" transform="matrix(1 0 0 1 -100.85899999999999 -63.61340000000000)" opacity="0.1" fill="rgb(0,0,0)" stroke="none" stroke-width="1"/><path id="ejzeye0gbfq74" d="M779.780420,550.129520L785.290340,551.505250L786.968020,555.362900C786.881835,555.447316,786.802536,555.538487,786.730880,555.635540L779.340000,554.017700L779.321680,550.376760C779.321680,550.376760,779.423610,550.320010,779.621830,550.213070C779.667130,550.189650,779.723760,550.159580,779.780420,550.129520Z" transform="matrix(1 0 0 1 -100.85899999999999 -63.61340000000000)" opacity="0.1" fill="rgb(255,255,255)" stroke="none" stroke-width="1"/><path id="ejzeye0gbfq75" d="M585.817000,556.277350L585.957510,559.374820L586.136740,563.392300C586.136740,563.392300,567.685070,564.435090,563.968000,568.362900C563.881815,568.447316,563.802516,568.538487,563.730860,568.635540L556.340000,567.017700L556.321680,563.376760C556.321680,563.376760,556.423610,563.320010,556.621830,563.213070C556.667150,563.189650,556.723780,563.159580,556.780440,563.129520C565.824418,558.700921,575.747277,556.359283,585.817000,556.277350Z" transform="matrix(1 0 0 1 -100.85899999999999 -63.61340000000000)" fill="rgb(108,99,255)" stroke="none" stroke-width="1"/><path id="ejzeye0gbfq76" d="M585.817000,556.277350L585.957510,559.374820C577.775280,559.627820,562.290320,564.505250,562.290320,564.505250L556.621790,563.213070C565.704965,558.726299,575.686396,556.355074,585.817000,556.277350Z" transform="matrix(1 0 0 1 -100.85899999999999 -63.61340000000000)" opacity="0.1" fill="rgb(0,0,0)" stroke="none" stroke-width="1"/><path id="ejzeye0gbfq77" d="M556.780420,563.129520L562.290340,564.505250L563.968020,568.362900C563.881835,568.447316,563.802536,568.538487,563.730880,568.635540L556.340000,567.017700L556.321680,563.376760C556.321680,563.376760,556.423610,563.320010,556.621830,563.213070C556.667130,563.189650,556.723760,563.159580,556.780420,563.129520Z" transform="matrix(1 0 0 1 -100.85899999999999 -63.61340000000000)" opacity="0.1" fill="rgb(255,255,255)" stroke="none" stroke-width="1"/><path id="ejzeye0gbfq78" d="M919.945450,450.497080C918.371292,448.924384,916.525724,447.649293,914.497820,446.733350L914.497820,407.877170C914.497820,407.421560,914.316830,406.984610,913.994665,406.662445C913.672500,406.340280,913.235550,406.159290,912.779940,406.159290L903.160850,406.159290C902.705240,406.159290,902.268290,406.340280,901.946125,406.662445C901.623960,406.984610,901.442970,407.421560,901.442970,407.877170L901.442970,445.988000C894.311495,448.353348,889.496856,455.020582,889.494470,462.534090L889.494470,545.885940C889.494470,547.911716,890.299207,549.854521,891.731648,551.286959C893.164088,552.719398,895.106894,553.524133,897.132670,553.524130L917.737190,553.524130C921.936091,553.524130,925.339974,550.120251,925.339980,545.921350L925.339980,463.516510C925.345881,458.631769,923.404427,453.946167,919.945450,450.497080Z" transform="matrix(1 0 0 1 -100.85899999999999 -63.61340000000000)" fill="rgb(63,61,86)" stroke="none" stroke-width="1"/><rect id="ejzeye0gbfq79" width="35.845500" height="47.351500" rx="0" ry="0" transform="matrix(1 0 0 1 788.63599999999997 411.13900000000001)" fill="rgb(108,99,255)" stroke="none" stroke-width="1"/><path id="ejzeye0gbfq80" d="M915.272260,408.814510L914.497820,408.814510L914.497820,407.877170C914.497820,407.421560,914.316830,406.984610,913.994665,406.662445C913.672500,406.340280,913.235550,406.159290,912.779940,406.159290L903.160850,406.159290C902.705240,406.159290,902.268290,406.340280,901.946125,406.662445C901.623960,406.984610,901.442970,407.421560,901.442970,407.877170L901.442970,408.814510L900.668530,408.814510L900.668530,412.797350L901.442970,412.797350L901.442970,433.154050L914.497820,433.154050L914.497820,412.797350L915.272260,412.797350Z" transform="matrix(1 0 0 1 -100.85899999999999 -63.61340000000000)" fill="rgb(108,99,255)" stroke="none" stroke-width="1"/><path id="ejzeye0gbfq81" d="M632.934060,484.223310C631.985350,482.198670,631.236600,480.766590,630.974510,480.273740C614.884440,484.244400,604.149170,480.889060,602.456240,480.295630C601.628440,481.859080,596.459910,491.852630,594.370930,501.433910C592.483850,510.076200,593.579140,515.869910,597.626500,518.654210L597.746430,518.739640L597.772750,518.757220C602.240420,521.701080,606.502300,524.308320,610.438750,526.505750Q611.234420,526.948560,611.938940,527.328700L611.989200,527.355990L612.024580,527.400860C612.565061,528.081699,613.068098,528.791442,613.531460,529.526940C614.401372,530.743166,614.929217,532.170420,615.060000,533.660000L615.060000,576.584000L614.788850,576.589720C604.525460,576.798960,598.172760,578.538920,598.172760,580.030720C598.172760,581.667400,605.790410,583.491220,616.721120,583.491220C627.651830,583.491220,635.269360,581.667400,635.269360,580.030720C635.269360,578.561060,629.024200,576.830810,618.935000,576.597780L618.662770,576.591310L618.916450,536.886130C618.922494,534.197865,619.547419,531.547087,620.742800,529.139210C620.946540,528.734480,621.165490,528.340850,621.393500,527.969930C621.576640,527.671490,621.770680,527.380270,621.970110,527.105340L622.006670,527.054810L622.061460,527.024810Q622.819590,526.610810,623.671460,526.127550L623.738110,526.091310C627.463730,523.987170,631.477970,521.519930,635.670600,518.756410C639.413900,516.288630,640.717250,511.300920,639.544410,503.932210C638.426920,496.906320,635.332810,489.336460,632.934060,484.223310Z" transform="matrix(1 0 0 1 -100.85899999999999 -63.61340000000000)" fill="rgb(208,205,225)" stroke="none" stroke-width="1"/><path id="ejzeye0gbfq82" d="M633.895510,517.856640C629.499840,520.753900,625.870800,522.926840,623.095510,524.492450L623.093000,524.492450C619.044235,524.216050,614.978260,524.330243,610.951390,524.833450C608.106390,523.245450,604.268270,520.967960,599.546540,517.856640C599.501740,517.826770,599.456940,517.796900,599.412140,517.764540L599.412140,517.762050C595.081140,514.782640,594.974140,508.472890,596.382940,502.021260C599.967190,501.623010,605.682070,501.797260,613.360800,504.540190C622.453330,507.788400,631.971470,505.951480,637.487220,504.281320C638.393240,509.973780,637.840660,515.255570,633.895510,517.856640Z" transform="matrix(1 0 0 1 -100.85899999999999 -63.61340000000000)" fill="rgb(108,99,255)" stroke="none" stroke-width="1"/><circle id="ejzeye0gbfq83" r="1.244530" transform="matrix(1 0 0 1 506.90199999999999 434.82900000000001)" fill="rgb(108,99,255)" stroke="none" stroke-width="1"/><circle id="ejzeye0gbfq84" r="1.244530" transform="matrix(1 0 0 1 503.41699999999997 446.27800000000002)" fill="rgb(255,255,255)" stroke="none" stroke-width="1"/><circle id="ejzeye0gbfq85" r="0.746720" transform="matrix(1 0 0 1 509.88799999999998 437.81500000000000)" fill="rgb(108,99,255)" stroke="none" stroke-width="1"/><circle id="ejzeye0gbfq86" r="0.746720" transform="matrix(1 0 0 1 512.87500000000000 452.00299999999999)" fill="rgb(255,255,255)" stroke="none" stroke-width="1"/><circle id="ejzeye0gbfq87" r="0.746720" transform="matrix(1 0 0 1 507.64800000000002 452.75000000000000)" fill="rgb(255,255,255)" stroke="none" stroke-width="1"/><circle id="ejzeye0gbfq88" r="0.746720" transform="matrix(1 0 0 1 522.83100000000002 427.85899999999998)" fill="rgb(108,99,255)" stroke="none" stroke-width="1"/><path id="ejzeye0gbfq89" d="M691.312490,443.757590C690.363780,441.732940,689.615030,440.300860,689.352940,439.808010C673.262870,443.778670,662.527600,440.423330,660.834670,439.829900C660.006870,441.393350,654.838340,451.386900,652.749360,460.968180C650.862280,469.610480,651.957570,475.404180,656.004920,478.188490L656.124860,478.273910L656.151180,478.291490C660.618850,481.235350,664.880730,483.842590,668.817180,486.040020Q669.612860,486.482830,670.317370,486.862970L670.367630,486.890260L670.403010,486.935130C670.943491,487.615973,671.446528,488.325718,671.909890,489.061220C672.779813,490.277452,673.307662,491.704718,673.438440,493.194310L673.438440,536.118310L673.167290,536.124020C662.903900,536.333270,656.551200,538.073220,656.551200,539.565020C656.551200,541.201710,664.168850,543.025520,675.099560,543.025520C686.030270,543.025520,693.647800,541.201710,693.647800,539.565020C693.647800,538.095360,687.402640,536.365110,677.313440,536.132080L677.041200,536.125610L677.294890,496.420430C677.300929,493.732165,677.925855,491.081385,679.121240,488.673510C679.324980,488.268780,679.543930,487.875150,679.771940,487.504230C679.955080,487.205790,680.149120,486.914570,680.348550,486.639650L680.385110,486.589110L680.439900,486.559110Q681.198030,486.145110,682.049900,485.661840L682.116550,485.625600C685.842170,483.521460,689.856400,481.054220,694.049040,478.290700C697.792340,475.822920,699.095690,470.835220,697.922850,463.466500C696.805350,456.440600,693.711240,448.870730,691.312490,443.757590Z" transform="matrix(1 0 0 1 -100.85899999999999 -63.61340000000000)" fill="rgb(208,205,225)" stroke="none" stroke-width="1"/><path id="ejzeye0gbfq90" d="M692.273940,477.390910C687.878270,480.288170,684.249230,482.461110,681.473940,484.026720L681.471450,484.026720C677.422685,483.750320,673.356710,483.864513,669.329840,484.367720C666.484840,482.779720,662.646720,480.502230,657.924990,477.390910C657.880190,477.361040,657.835390,477.331170,657.790580,477.298810L657.790580,477.296320C653.459580,474.316920,653.352580,468.007160,654.761390,461.555540C658.345640,461.157280,664.060520,461.331540,671.739250,464.074460C680.831780,467.322670,690.349920,465.485750,695.865670,463.815590C696.771670,469.508060,696.219090,474.789840,692.273940,477.390910Z" transform="matrix(1 0 0 1 -100.85899999999999 -63.61340000000000)" fill="rgb(108,99,255)" stroke="none" stroke-width="1"/><circle id="ejzeye0gbfq91" r="1.244530" transform="matrix(1 0 0 1 565.27999999999997 394.36300000000000)" fill="rgb(108,99,255)" stroke="none" stroke-width="1"/><circle id="ejzeye0gbfq92" r="1.244530" transform="matrix(1 0 0 1 561.79499999999996 405.81299999999999)" fill="rgb(255,255,255)" stroke="none" stroke-width="1"/><circle id="ejzeye0gbfq93" r="0.746720" transform="matrix(1 0 0 1 568.26700000000005 397.35000000000002)" fill="rgb(108,99,255)" stroke="none" stroke-width="1"/><circle id="ejzeye0gbfq94" r="0.746720" transform="matrix(1 0 0 1 571.25400000000002 411.53699999999998)" fill="rgb(255,255,255)" stroke="none" stroke-width="1"/><circle id="ejzeye0gbfq95" r="0.746720" transform="matrix(1 0 0 1 566.02700000000004 412.28399999999999)" fill="rgb(255,255,255)" stroke="none" stroke-width="1"/><circle id="ejzeye0gbfq96" r="0.746720" transform="matrix(1 0 0 1 581.21000000000004 387.39400000000001)" fill="rgb(108,99,255)" stroke="none" stroke-width="1"/></svg>